<svg width="256" height="250" viewBox="0 0 256 250" fill="none" xmlns="http://www.w3.org/2000/svg">
<g clip-path="url(#clip0_1_3)">
<rect y="14" width="256" height="250" rx="125" fill="white"/>
<path d="M128.001 12C57.3173 12 0 69.3067 0 140.001C0 196.555 36.6762 244.536 87.5349 261.461C93.932 262.646 96.2806 258.684 96.2806 255.303C96.2806 252.251 96.1619 242.168 96.1068 231.472C60.4968 239.215 52.9826 216.37 52.9826 216.37C47.16 201.575 38.7704 197.641 38.7704 197.641C27.1569 189.696 39.6458 189.859 39.6458 189.859C52.4993 190.762 59.2674 203.05 59.2674 203.05C70.6838 222.618 89.2116 216.961 96.5159 213.69C97.6647 205.418 100.982 199.771 104.643 196.574C76.2118 193.338 46.3248 182.362 46.3248 133.316C46.3248 119.341 51.3251 107.922 59.5132 98.9584C58.1842 95.7344 53.8029 82.7156 60.7532 65.0844C60.7532 65.0844 71.5019 61.6442 95.9626 78.205C106.173 75.3689 117.123 73.9466 128.001 73.8978C138.879 73.9466 149.838 75.3689 160.067 78.205C184.498 61.6442 195.232 65.0844 195.232 65.0844C202.199 82.7156 197.816 95.7344 196.487 98.9584C204.694 107.922 209.66 119.341 209.66 133.316C209.66 182.479 179.716 193.304 151.213 196.473C155.804 200.445 159.895 208.235 159.895 220.177C159.895 237.303 159.747 251.087 159.747 255.303C159.747 258.71 162.051 262.701 168.539 261.444C219.37 244.5 256 196.536 256 140.001C256 69.3067 198.691 12 128.001 12ZM47.9406 194.34C47.6586 194.976 46.6582 195.167 45.7467 194.73C44.8183 194.313 44.2969 193.446 44.5979 192.808C44.8734 192.153 45.876 191.97 46.8023 192.409C47.7328 192.827 48.2627 193.702 47.9406 194.34ZM54.2368 199.958C53.6263 200.524 52.433 200.261 51.6233 199.367C50.786 198.474 50.6292 197.281 51.2481 196.707C51.8776 196.141 53.0349 196.406 53.8743 197.298C54.7116 198.201 54.8748 199.386 54.2368 199.958ZM58.5562 207.146C57.772 207.691 56.4896 207.18 55.6968 206.042C54.9126 204.904 54.9126 203.539 55.7138 202.992C56.5087 202.445 57.772 202.937 58.5753 204.066C59.3575 205.224 59.3575 206.589 58.5562 207.146ZM65.8614 215.471C65.1598 216.245 63.6654 216.037 62.5717 214.982C61.4525 213.949 61.1409 212.485 61.8446 211.711C62.5547 210.935 64.0575 211.153 65.1598 212.201C66.2705 213.231 66.6096 214.706 65.8614 215.471ZM75.3025 218.282C74.993 219.284 73.5538 219.74 72.104 219.314C70.6563 218.875 69.7088 217.701 70.0013 216.688C70.3023 215.679 71.7479 215.204 73.2083 215.66C74.6539 216.096 75.6035 217.262 75.3025 218.282ZM86.0469 219.474C86.083 220.529 84.8536 221.405 83.3317 221.424C81.8013 221.458 80.5634 220.603 80.5465 219.565C80.5465 218.499 81.7483 217.632 83.2787 217.606C84.8006 217.577 86.0469 218.424 86.0469 219.474ZM96.6021 219.069C96.7844 220.099 95.7267 221.157 94.2154 221.439C92.7296 221.71 91.3539 221.074 91.1653 220.053C90.9809 218.997 92.0576 217.939 93.5414 217.666C95.0548 217.403 96.4093 218.022 96.6021 219.069Z" fill="#161614"/>
</g>
<defs>
<clipPath id="clip0_1_3">
<rect width="256" height="250" fill="white"/>
</clipPath>
</defs>
</svg>
