<svg width="30" height="30" viewBox="0 0 30 30" fill="none" xmlns="http://www.w3.org/2000/svg">
<path d="M28.7499 21.25C28.7499 25.3875 25.3874 28.75 21.2499 28.75V26.875C24.3749 26.875 26.8749 24.375 26.8749 21.25H28.7499ZM1.2499 8.75C1.2499 4.6125 4.6124 1.25 8.7499 1.25V3.125C5.6249 3.125 3.1249 5.625 3.1249 8.75H1.2499ZM9.9999 5.4L4.2624 11.15C0.237402 15.175 0.237402 21.7125 4.2624 25.7375C8.2874 29.7625 14.8249 29.7625 18.8499 25.7375L27.6874 16.875C28.2999 16.2875 28.2999 15.3 27.6874 14.6875C27.5423 14.542 27.3698 14.4265 27.18 14.3478C26.9902 14.269 26.7867 14.2285 26.5812 14.2285C26.3756 14.2285 26.1721 14.269 25.9823 14.3478C25.7925 14.4265 25.62 14.542 25.4749 14.6875L19.9499 20.2125L19.0624 19.325L27.2374 11.15C27.8499 10.5375 27.8499 9.55 27.2374 8.9375C26.6249 8.325 25.6249 8.325 24.9999 8.9375L17.7374 16.25L16.8749 15.3375L25.4624 6.725C26.0749 6.1125 26.0749 5.125 25.4624 4.5125C24.8499 3.9 23.8624 3.9 23.2499 4.5125L14.6374 13.125L13.7499 12.25L20.6249 5.4C21.2499 4.7875 21.2499 3.8 20.6249 3.1875C19.9999 2.575 19.0249 2.575 18.4124 3.1875L8.8874 12.7125C9.63398 13.6742 10.004 14.8753 9.92806 16.0904C9.85211 17.3056 9.33542 18.4512 8.4749 19.3125L7.5874 18.425C8.28966 17.7219 8.6841 16.7688 8.6841 15.775C8.6841 14.7812 8.28966 13.8281 7.5874 13.125L7.1499 12.6875L12.2374 7.6C12.8499 6.9875 12.8499 6 12.2374 5.3875C11.6124 4.7875 10.6249 4.7875 9.9999 5.4Z" fill="black"/>
</svg>
